<svg enable-background="new 0 0 520 520" viewBox="0 0 520 520" xmlns="http://www.w3.org/2000/svg">
    <g id="_x32_38-Bomb_x2C__Skull_x2C__Virus">
        <g>
            <path d="m361.801 154.388c8.568-6.793 29.131-20.727 42.669-10.411 5.924 4.513 12.287 6.06 18.925 4.598 16.423-3.622 28.041-25.319 28.527-26.241 1.288-2.44.354-5.46-2.085-6.751-2.438-1.29-5.463-.358-6.756 2.079-2.732 5.148-11.982 18.985-21.854 21.15-3.671.807-7.175-.105-10.696-2.789-19.767-15.06-46.209 3.392-55.854 11.24l-27.575-27.576c-.938-.938-2.209-1.464-3.535-1.464s-2.598.527-3.535 1.464l-23.883 23.883c-24.098-12.145-50.879-18.57-78.649-18.57-46.744 0-90.69 18.203-123.744 51.256s-51.256 77-51.256 123.744 18.203 90.69 51.256 123.743c33.054 33.054 77 51.257 123.744 51.257s90.69-18.203 123.743-51.257c33.054-33.053 51.257-76.999 51.257-123.743 0-27.77-6.425-54.551-18.57-78.648l23.882-23.882c1.953-1.953 1.953-5.119 0-7.071zm-225.618 226.929c1.953 1.952 1.953 5.118 0 7.07-.977.977-2.256 1.465-3.536 1.465s-2.559-.488-3.536-1.465c-23.609-23.608-36.611-54.998-36.611-88.387s13.002-64.779 36.611-88.389c1.953-1.952 5.118-1.952 7.071 0 1.953 1.953 1.953 5.119 0 7.071-21.721 21.72-33.683 50.6-33.683 81.317s11.963 59.598 33.684 81.318z"/>
            <circle cx="77.5" cy="460" r="10"/>
            <circle cx="377.5" cy="450" r="10"/>
            <circle cx="467.5" cy="340" r="10"/>
            <circle cx="457.5" cy="230" r="10"/>
            <circle cx="387.5" cy="60" r="10"/>
            <circle cx="257.5" cy="80" r="10"/>
            <circle cx="67.5" cy="120" r="10"/>
            <path d="m427.5 365c-13.785 0-25 11.215-25 25s11.215 25 25 25 25-11.215 25-25-11.215-25-25-25z"/>
            <path d="m132.5 105c16.542 0 30-13.458 30-30s-13.458-30-30-30-30 13.458-30 30 13.458 30 30 30z"/>
        </g>
    </g>
</svg>