<svg version="1.1" id="Capa_1" xmlns="http://www.w3.org/2000/svg" x="0px"
     y="0px" viewBox="0 0 512.001 512.001" style="enable-background:new 0 0 512.001 512.001;" xml:space="preserve"><g><path style="fill:#5C6470;" d="M153.867,333.585l47.533-46.119l0.037,0.054c0.111,0.16,0.225,0.319,0.341,0.478l0.033,0.045 c0.121,0.166,0.245,0.33,0.371,0.493l0.008,0.011l0.021,0.025c0.125,0.161,0.252,0.321,0.381,0.48l0.009,0.011l0.017,0.02 c0.13,0.16,0.264,0.319,0.397,0.477l0.011,0.013l0.013,0.014c0.138,0.16,0.277,0.319,0.419,0.477l0.008,0.009l0.009,0.01 c0.143,0.158,0.289,0.315,0.437,0.472l0.01,0.01l0.004,0.004l0.004,0.005c0.152,0.159,0.305,0.316,0.461,0.473l17.982,17.982 c0.156,0.156,0.314,0.31,0.473,0.461l0.005,0.004l0.004,0.005l0.01,0.009c0.156,0.147,0.314,0.294,0.473,0.436l0.009,0.009 l0.009,0.008c0.158,0.143,0.316,0.282,0.477,0.42l0.015,0.013l0.011,0.008c0.157,0.136,0.317,0.269,0.479,0.4l0.02,0.017 l0.008,0.006c0.159,0.13,0.32,0.258,0.483,0.384l0.025,0.02l0.007,0.006c0.161,0.124,0.324,0.247,0.487,0.367l0.03,0.022 l0.027,0.02c0.159,0.116,0.319,0.23,0.48,0.344l0.046,0.031l0.001,0.001l-47.532,46.12l60.782,60.782 c-92.005,80.615-175.38,102.646-212.07,65.957l0,0c-36.696-36.695-14.664-120.071,65.951-212.076L153.867,333.585z"/><rect
        x="184.369" y="212.546" transform="matrix(-0.7071 0.7071 -0.7071 -0.7071 643.9881 193.3393)"
        style="fill:#F69249;" width="195.166" height="34.996"/><path style="fill:#EE4554;"
                                                                     d="M394.418,142.326c35.087,22.529,76.96,12.837,107.579-17.783L387.457,10.002 c-30.62,30.619-40.314,72.491-17.784,107.578l-31.083,31.083l24.746,24.745L394.418,142.326L394.418,142.326z M455.508,119.296 c-20.989,6.206-37.85,7.955-54.306-8.5c-16.454-16.454-14.705-33.316-8.499-54.305L455.508,119.296z"/></g>
    <g><path style="fill:#000001;" d="M458.344,128.887c3.382-1,5.988-3.709,6.857-7.127c0.867-3.415-0.127-7.042-2.621-9.536 l-62.804-62.805c-2.494-2.494-6.118-3.489-9.536-2.62c-3.418,0.868-6.127,3.474-7.127,6.858 c-3.401,11.505-4.853,19.721-4.853,27.473c0,14.041,5.192,26.061,15.871,36.739C415.499,139.236,438.481,134.76,458.344,128.887z M408.275,103.723c-6.925-6.925-10.012-13.894-10.012-22.595c0-1.475,0.085-3.022,0.26-4.675l37.02,37.02 C424.993,114.561,416.68,112.128,408.275,103.723z"/>
        <path style="fill:#000001;"
              d="M40.818,438.752c-0.534,4.055-0.802,7.789-0.802,11.216c0,10.387,2.464,17.938,7.446,22.919 c15.376,15.376,55.241,2.741,67.092-1.496c5.202-1.86,7.91-7.589,6.05-12.785c-1.86-5.201-7.584-7.909-12.785-6.05 c-6.19,2.214-16.913,5.336-26.765,6.848c-15.843,2.432-19.417-0.629-19.448-0.661c-0.028-0.028-2.815-3.265-0.956-17.376 c0.725-5.474-3.132-10.501-8.608-11.223C46.564,429.422,41.539,433.275,40.818,438.752z"/>
        <path style="fill:#000001;"
              d="M115.273,505.47c39.958-11.9,85.089-39.23,130.515-79.032c2.081-1.823,3.313-4.428,3.404-7.193 c0.091-2.772-0.968-5.444-2.923-7.401l-52.237-52.237l190.039-190.04c0.504-0.504,0.94-1.05,1.315-1.625l11.891-11.891 c35.618,18.58,77.76,9.598,111.795-24.435c3.906-3.907,3.906-10.237,0-14.145L394.529,2.93c-3.906-3.906-10.238-3.906-14.144,0 c-21.863,21.862-33.905,48.019-33.905,73.649c0,13.335,3.178,26.134,9.463,38.149l-11.883,11.884 c-0.576,0.374-1.123,0.812-1.628,1.316L237.344,233.015c-1.953,1.953-2.929,4.513-2.929,7.072s0.977,5.119,2.929,7.072 c3.906,3.906,10.238,3.906,14.144,0l85.727-85.726l13.351,13.351L226.634,298.716l-19.048-19.049 c-1.259-1.259-2.771-2.106-4.373-2.554c-3.777-1.994-8.563-1.404-11.742,1.774l-39.078,39.078l-52.237-52.236 c-1.957-1.956-4.637-3.015-7.402-2.924c-2.765,0.092-5.37,1.324-7.193,3.405c-39.803,45.425-67.13,90.557-79.031,130.514 C2.162,411.391,0,425.169,0,437.772c0.001,22.281,6.762,40.882,20.055,54.175C40.865,512.756,74.681,517.559,115.273,505.47z M378.455,116.359c0-1.865-0.52-3.742-1.586-5.401c-6.892-10.733-10.386-22.3-10.386-34.379c0-17.59,7.487-35.816,21.267-52.139 l99.824,99.824c-28.037,23.833-59.83,28.012-86.532,10.866c-3.958-2.54-9.15-1.982-12.477,1.344l-24.011,24.011l-13.039-13.039 l24.01-24.011C377.457,121.502,378.455,118.941,378.455,116.359z M34.199,477.802C1.578,445.186,26.074,367.76,93.64,287.503 l44.609,44.609l-42.877,42.877c-5.125,5.126-7.661,11.925-7.661,18.882c0.001,7.604,3.031,15.397,9.026,21.392 c5.407,5.408,12.473,8.6,19.897,8.987c7.704,0.402,15.131-2.375,20.377-7.621c3.906-3.907,3.906-10.237,0-14.145 c-3.906-3.906-10.238-3.906-14.144,0c-2.878,2.879-8.368,2.253-11.987-1.364c-3.619-3.619-4.244-9.107-1.365-11.987l89.623-89.623 l13.351,13.352l-62.832,62.832c-1.953,1.953-2.929,4.513-2.929,7.072c0,2.56,0.977,5.119,2.929,7.072 c3.906,3.906,10.238,3.906,14.144,0l16.086-16.087l44.609,44.609C144.239,485.927,66.818,510.42,34.199,477.802z"/>
        <path style="fill:#000001;"
              d="M231.17,267.479l0.326-0.326c3.906-3.907,3.906-10.237,0-14.145c-3.906-3.906-10.238-3.906-14.144,0 l-0.326,0.326c-1.953,1.953-2.929,4.513-2.929,7.072c0,2.56,0.977,5.119,2.929,7.072 C220.931,271.385,227.264,271.385,231.17,267.479z"/></g></svg>